<?xml version="1.0" encoding="UTF-8"?>
<svg xmlns="http://www.w3.org/2000/svg" xmlns:xlink="http://www.w3.org/1999/xlink" width="40px" height="40px" viewBox="0 0 40 40" version="1.1">
<g id="surface1">
<path style=" stroke:none;fill-rule:nonzero;fill:rgb(0%,0%,0%);fill-opacity:1;" d="M 37.144531 13.820312 C 36.984375 12.605469 36.960938 10.511719 38.089844 9.808594 C 38.113281 9.792969 38.125 9.777344 38.144531 9.757812 C 39.066406 9.464844 39.707031 9.050781 39.203125 8.492188 L 25.582031 4.386719 L 3.527344 7.453125 C 3.527344 7.453125 1.003906 7.816406 1.230469 11.738281 C 1.351562 13.875 2.019531 14.921875 2.605469 15.441406 L 0.796875 15.984375 C 0.292969 16.542969 0.933594 16.957031 1.855469 17.253906 C 1.875 17.269531 1.890625 17.289062 1.910156 17.300781 C 3.039062 18.003906 3.015625 20.097656 2.855469 21.3125 C -1.199219 22.464844 0.253906 22.839844 0.253906 22.839844 L 1.144531 23.054688 C 0.519531 23.621094 -0.101562 24.695312 0.015625 26.726562 C 0.238281 30.648438 2.3125 30.921875 2.3125 30.921875 L 16.746094 35.613281 L 38.53125 30.335938 C 38.53125 30.335938 39.988281 29.960938 35.933594 28.808594 C 35.769531 27.59375 35.746094 25.5 36.878906 24.792969 C 36.898438 24.78125 36.914062 24.761719 36.929688 24.746094 C 37.855469 24.453125 38.492188 24.039062 37.992188 23.480469 L 37.042969 23.195312 C 37.675781 22.8125 38.625 21.816406 38.773438 19.234375 C 38.875 17.453125 38.410156 16.414062 37.875 15.800781 L 39.746094 15.347656 C 39.746094 15.347656 41.203125 14.972656 37.144531 13.820312 Z M 18.925781 13.769531 L 22.589844 13.015625 L 34.96875 10.472656 L 36.8125 10.09375 C 36.222656 11.171875 36.25 12.648438 36.34375 13.597656 C 36.367188 13.8125 36.390625 14.007812 36.414062 14.15625 L 34.398438 14.660156 L 18.769531 18.546875 Z M 3.1875 17.589844 L 5.03125 17.96875 L 16.921875 20.410156 L 17.960938 20.625 L 21.074219 21.265625 L 21.230469 26.039062 L 5.167969 22.046875 L 3.585938 21.652344 C 3.609375 21.503906 3.632812 21.308594 3.65625 21.089844 C 3.753906 20.144531 3.777344 18.667969 3.1875 17.589844 Z M 2.472656 11.550781 C 2.449219 10.507812 2.636719 9.75 3.011719 9.367188 C 3.25 9.125 3.53125 9.074219 3.726562 9.074219 C 3.828125 9.074219 3.902344 9.085938 3.90625 9.085938 L 13.410156 12.183594 L 18.152344 13.730469 L 17.996094 18.539062 L 4.695312 14.8125 L 3.992188 14.613281 C 3.96875 14.605469 3.933594 14.601562 3.90625 14.601562 C 3.851562 14.597656 2.535156 14.476562 2.472656 11.550781 Z M 16.78125 33.527344 L 2.777344 29.601562 C 2.753906 29.59375 2.71875 29.589844 2.691406 29.589844 C 2.636719 29.585938 1.320312 29.464844 1.257812 26.539062 C 1.234375 25.496094 1.421875 24.742188 1.796875 24.355469 C 2.035156 24.109375 2.316406 24.058594 2.511719 24.058594 C 2.613281 24.058594 2.6875 24.074219 2.691406 24.074219 C 2.691406 24.074219 2.695312 24.074219 2.691406 24.074219 L 16.9375 28.71875 Z M 35.128906 28.585938 C 35.152344 28.800781 35.175781 28.996094 35.199219 29.144531 L 17.554688 33.535156 L 17.710938 28.757812 L 21.480469 27.984375 L 22.039062 28.117188 L 24.128906 27.441406 L 33.753906 25.460938 L 35.597656 25.082031 C 35.007812 26.160156 35.03125 27.636719 35.128906 28.585938 Z M 36.101562 22.09375 C 36.070312 22.09375 36.039062 22.097656 36.007812 22.109375 L 34.675781 22.480469 L 22.003906 26.035156 L 21.851562 21.226562 L 26.007812 19.867188 L 36.074219 16.585938 C 36.074219 16.585938 36.605469 16.46875 36.992188 16.863281 C 37.367188 17.246094 37.554688 18 37.53125 19.042969 C 37.464844 21.96875 36.148438 22.089844 36.101562 22.09375 Z M 36.101562 22.09375 "/>
</g>
</svg>
